<svg width="46" height="31" viewBox="0 0 46 31" fill="none" xmlns="http://www.w3.org/2000/svg">
<g id="Frame 37" clip-path="url(#clip0_128_4526)">
<path id="Vector" d="M2.5 0.625H44C45.1046 0.625 46 1.52043 46 2.625V28.625C46 29.7296 45.1046 30.625 44 30.625H2.5C1.39543 30.625 0.5 29.7296 0.5 28.625V2.625C0.5 1.52043 1.39543 0.625 2.5 0.625Z" fill="url(#paint0_radial_128_4526)"/>
<path id="Vector_2" d="M4.62135 12.5346L3.74178 10.3913L2.86724 12.5346M23.9981 11.6811C23.8215 11.7883 23.6126 11.7919 23.3624 11.7919H21.8013V10.5977H23.3837C23.6076 10.5977 23.8413 10.6078 23.9931 10.6947C24.1598 10.773 24.2629 10.9397 24.2629 11.17C24.2629 11.405 24.1648 11.5941 23.9981 11.6811ZM35.1351 12.5346L34.2458 10.3913L33.3614 12.5346H35.1351ZM14.3751 14.8545H13.0577L13.0528 10.6438L11.1894 14.8545H10.0611L8.19281 10.6401V14.8545H5.57908L5.0853 13.6553H2.40962L1.91081 14.8545H0.515081L2.81632 9.47816H4.72562L6.91124 14.5684V9.47816H9.00865L10.6904 13.1254L12.2354 9.47816H14.3749L14.3751 14.8545ZM19.6257 14.8545H15.3328V9.47816H19.6257V10.5977H16.6179V11.5668H19.5536V12.6689H16.6179V13.7425H19.6257V14.8545ZM25.6786 10.9261C25.6786 11.7833 25.1065 12.2262 24.7731 12.3591C25.0543 12.4662 25.2944 12.6552 25.4088 12.8119C25.5902 13.0793 25.6215 13.3182 25.6215 13.7983V14.8545H24.3254L24.3205 14.1765C24.3205 13.853 24.3515 13.3877 24.1176 13.1291C23.9298 12.94 23.6436 12.899 23.181 12.899H21.8015V14.8545H20.5165V9.47816H23.4722C24.129 9.47816 24.6129 9.49551 25.0283 9.73568C25.4349 9.97584 25.6786 10.3264 25.6786 10.9261ZM27.7351 14.8545H26.4239V9.47816H27.7351V14.8545ZM42.9472 14.8545H41.1262L38.6903 10.8192V14.8545H36.0732L35.5731 13.6553H32.9036L32.4184 14.8545H30.9146C30.29 14.8545 29.4991 14.7163 29.0512 14.2598C28.5996 13.8034 28.3646 13.185 28.3646 12.2074C28.3646 11.41 28.5051 10.6811 29.0574 10.1051C29.4729 9.676 30.1235 9.47816 31.009 9.47816H32.2531V10.6302H31.0351C30.5662 10.6302 30.3013 10.6999 30.0463 10.9486C29.8272 11.175 29.6769 11.603 29.6769 12.1665C29.6769 12.7425 29.7913 13.1578 30.0302 13.4291C30.2281 13.6418 30.5876 13.7064 30.9258 13.7064H31.503L33.3142 9.47833H35.2397L37.4154 14.5636V9.47833H39.3721L41.631 13.2227V9.47833H42.9472V14.8545ZM0.500162 15.9105H2.69584L3.19092 14.7163H4.2993L4.79308 15.9105H9.11324V14.9975L9.49886 15.9144H11.7416L12.1272 14.9839V15.9105H22.8636L22.8586 13.9503H23.0663C23.2118 13.9553 23.2543 13.9688 23.2543 14.2089V15.9105H28.8072V15.4542C29.2551 15.6942 29.9517 15.9105 30.8684 15.9105H33.2045L33.7045 14.7163H34.8129L35.3018 15.9105H39.8036V14.7762L40.4853 15.9105H44.0928V8.41211H40.5226V9.29768L40.0226 8.41211H36.3592V9.29768L35.9002 8.41211H30.9518C30.1235 8.41211 29.3954 8.52773 28.8072 8.84995V8.41211H25.3924V8.84995C25.0181 8.51784 24.5081 8.41211 23.941 8.41211H11.4654L10.6283 10.3488L9.7687 8.41211H5.83919V9.29768L5.40751 8.41211H2.05627L0.5 11.9772L0.500162 15.9105Z" fill="white"/>
<path id="Vector_3" d="M46.221 19.8763H43.8789C43.6451 19.8763 43.4897 19.885 43.3589 19.9734C43.2233 20.0605 43.1711 20.1897 43.1711 20.3603C43.1711 20.5632 43.2856 20.7012 43.4521 20.7609C43.5877 20.8081 43.7333 20.8218 43.9473 20.8218L44.6438 20.8405C45.3466 20.8578 45.8158 20.9786 46.1018 21.2733C46.1539 21.3143 46.1852 21.3604 46.221 21.4064M46.221 23.4216C45.9089 23.8781 45.3006 24.1095 44.4771 24.1095H41.9954V22.9564H44.4671C44.7123 22.9564 44.8838 22.9241 44.9871 22.8232C45.0766 22.7401 45.1391 22.6192 45.1391 22.4725C45.1391 22.3158 45.0766 22.1915 44.9821 22.1169C44.8889 22.0348 44.7531 21.9975 44.5294 21.9975C43.3227 21.9565 41.8174 22.0348 41.8174 20.3331C41.8174 19.5531 42.3126 18.7321 43.6611 18.7321H46.2209V17.6621H43.8426C43.1249 17.6621 42.6035 17.834 42.2343 18.1012V17.6621H38.7165C38.1539 17.6621 37.4936 17.8016 37.1813 18.1012V17.6621H30.8995V18.1012C30.3995 17.7406 29.5559 17.6621 29.1666 17.6621H25.023V18.1012C24.6275 17.7182 23.7479 17.6621 23.2118 17.6621H18.5745L17.5133 18.8105L16.5194 17.6621H9.59216V25.1657H16.389L17.4825 23.9991L18.5125 25.1657L22.7022 25.1694V23.4043H23.1141C23.6699 23.4129 24.3256 23.3905 24.904 23.1404V25.1655H28.3597V23.2098H28.5264C28.7391 23.2098 28.7601 23.2186 28.7601 23.4312V25.1654H39.2578C39.9243 25.1654 40.6209 24.9948 41.0067 24.6852V25.1654H44.3365C45.0295 25.1654 45.7062 25.0682 46.221 24.8195V23.4216ZM41.0949 21.2733C41.3451 21.5323 41.4792 21.8592 41.4792 22.4126C41.4792 23.5695 40.7565 24.1095 39.4605 24.1095H36.9575V22.9564H39.4504C39.6942 22.9564 39.867 22.9241 39.9754 22.8232C40.0637 22.7401 40.1271 22.6192 40.1271 22.4725C40.1271 22.3158 40.0585 22.1915 39.9703 22.1169C39.8721 22.0348 39.7365 21.9975 39.5127 21.9975C38.3109 21.9565 36.8059 22.0348 36.8059 20.3331C36.8059 19.5531 37.2959 18.7321 38.6432 18.7321H41.2195V19.8766H38.8621C38.6284 19.8766 38.4765 19.8854 38.3472 19.9737C38.2065 20.0608 38.1543 20.1901 38.1543 20.3607C38.1543 20.5635 38.2738 20.7015 38.4355 20.7612C38.571 20.8084 38.7166 20.8222 38.9356 20.8222L39.6274 20.8408C40.325 20.8578 40.8038 20.9785 41.0949 21.2733ZM29.499 20.9412C29.3271 21.0432 29.1145 21.0519 28.8645 21.0519H27.3034V19.8442H28.8857C29.1145 19.8442 29.3435 19.849 29.499 19.9413C29.6656 20.0284 29.7651 20.1949 29.7651 20.425C29.7651 20.6551 29.6656 20.8405 29.499 20.9412ZM30.2751 21.6104C30.5612 21.716 30.795 21.9052 30.9046 22.0619C31.0861 22.3244 31.1124 22.5695 31.1176 23.0435V24.1095H29.8274V23.4367C29.8274 23.1132 29.8585 22.6342 29.6197 22.3841C29.4319 22.1915 29.1457 22.1454 28.6769 22.1454H27.3035V24.1095H26.0122V18.7319H28.9791C29.6297 18.7319 30.1036 18.7606 30.5254 18.9857C30.9309 19.2307 31.186 19.5664 31.186 20.1798C31.1858 21.0382 30.6134 21.4762 30.2751 21.6104ZM31.8985 18.7319H36.1876V19.844H33.1783V20.8217H36.1141V21.9189H33.1783V22.9888L36.1876 22.9937V24.1095H31.8985V18.7319ZM23.2282 21.2136H21.5675V19.8442H23.2431C23.7071 19.8442 24.0291 20.0332 24.0291 20.5035C24.0291 20.9686 23.722 21.2136 23.2282 21.2136ZM20.2876 23.6204L18.3145 21.4299L20.2876 19.309V23.6204ZM15.1923 22.9888H12.0327V21.9189H14.854V20.8217H12.0327V19.844H15.2545L16.6602 21.4111L15.1923 22.9888ZM25.4088 20.5035C25.4088 21.9974 24.2943 22.3058 23.171 22.3058H21.5675V24.1095H19.0697L17.4874 22.3293L15.8429 24.1095H10.7526V18.7319H15.9212L17.5023 20.4946L19.1369 18.7319H23.2431C24.263 18.7319 25.4088 19.0142 25.4088 20.5035Z" fill="white"/>
</g>
<defs>
<radialGradient id="paint0_radial_128_4526" cx="0" cy="0" r="1" gradientUnits="userSpaceOnUse" gradientTransform="translate(8.56883 5.86482) scale(42.9122 28.0507)">
<stop stop-color="#9DD5F6"/>
<stop offset="0.0711" stop-color="#98D3F5"/>
<stop offset="0.1575" stop-color="#89CEF3"/>
<stop offset="0.2516" stop-color="#70C6EF"/>
<stop offset="0.3514" stop-color="#4EBBEA"/>
<stop offset="0.4546" stop-color="#23ADE3"/>
<stop offset="0.5" stop-color="#0DA6E0"/>
<stop offset="1" stop-color="#2E77BC"/>
</radialGradient>
<clipPath id="clip0_128_4526">
<rect width="45.5" height="30" fill="white" transform="translate(0.5 0.625)"/>
</clipPath>
</defs>
</svg>
