<svg width="160" height="159" viewBox="0 0 160 159" fill="none" xmlns="http://www.w3.org/2000/svg">
<path id="Vector" d="M66.2922 145.167L67.2664 145.378L65.9499 151.658L64.9229 151.408L65.5022 148.774C51.5169 146.033 38.6335 139.275 28.4272 129.329C18.221 119.382 11.1341 106.677 8.03318 92.7668C6.99886 93.7064 5.73727 94.3599 4.37307 94.6627C6.0227 92.9135 7.17298 90.7538 7.70403 88.4089C9.11681 90.3514 11.002 91.9012 13.181 92.9116C11.78 93.1413 10.3435 93.0099 9.00745 92.5298C12.0686 106.26 19.0628 118.801 29.1353 128.621C39.2078 138.441 51.9226 145.115 65.726 147.826L66.2922 145.167ZM92.4791 5.60866C106.115 8.07559 118.757 14.4034 128.904 23.841C139.051 33.2786 146.277 45.4296 149.724 58.8515C148.377 58.4142 146.941 58.3281 145.551 58.6013C147.749 59.5474 149.674 61.0326 151.146 62.9197C151.619 60.5762 152.704 58.3999 154.293 56.6133C152.932 56.9659 151.684 57.6644 150.672 58.6408C147.191 45.0334 139.875 32.7122 129.593 23.1427C119.312 13.5732 106.498 7.15823 92.6766 4.66072L93.2164 2.02754L92.2553 1.83006L90.9387 8.12335L91.913 8.32083L92.4791 5.60866ZM75.7321 147.234C75.9 146.468 76.1245 145.715 76.4036 144.983C76.6482 144.295 76.9522 143.63 77.312 142.995C77.602 142.45 77.9556 141.942 78.3653 141.48L75.7321 141.296C74.7753 142.372 74.0134 143.606 73.4807 144.943C72.937 146.36 72.6129 147.852 72.5196 149.367C72.3948 150.885 72.5103 152.414 72.8619 153.896C73.1947 155.303 73.7742 156.641 74.5735 157.846L77.2067 158.03C76.7486 157.318 76.3898 156.548 76.1403 155.739C75.832 154.765 75.6117 153.764 75.482 152.75C75.3466 151.707 75.3157 150.653 75.3898 149.604C75.4454 148.807 75.5598 148.014 75.7321 147.234ZM88.0685 149.327C88.4747 149.991 88.7016 150.749 88.7268 151.526C88.7915 152.394 88.6186 153.264 88.2265 154.041C87.8342 154.762 87.2571 155.367 86.5545 155.792C85.7502 156.247 84.8454 156.496 83.9213 156.516C83.2449 156.546 82.5683 156.461 81.9201 156.266C81.2549 156.075 80.6454 155.727 80.1427 155.252C79.5539 154.712 79.1025 154.04 78.8261 153.29C78.4539 152.309 78.2492 151.272 78.2205 150.223C78.1614 149.203 78.2366 148.181 78.4443 147.181C78.6249 146.354 78.9599 145.568 79.4317 144.864C79.8525 144.24 80.4168 143.725 81.0775 143.363C81.7558 142.988 82.5143 142.78 83.2893 142.758C84.1083 142.692 84.931 142.827 85.6855 143.153C86.3583 143.446 86.9501 143.897 87.4102 144.469C87.8527 145.043 88.1467 145.716 88.266 146.431L85.4749 146.576C85.3621 146.145 85.101 145.767 84.7376 145.509C84.3478 145.255 83.8843 145.14 83.421 145.18C83.016 145.189 82.6213 145.31 82.28 145.528C81.9387 145.746 81.6639 146.054 81.4856 146.418C81.0444 147.4 80.863 148.479 80.959 149.551H81.0511C81.234 149.153 81.4934 148.795 81.8147 148.498C82.1464 148.195 82.5299 147.954 82.947 147.787C83.3683 147.623 83.8124 147.525 84.2636 147.497C85.0066 147.445 85.7496 147.6 86.4096 147.945C87.0803 148.243 87.6547 148.721 88.0685 149.327ZM85.9883 151.75C85.9687 151.336 85.8466 150.933 85.6328 150.578C85.4244 150.232 85.1253 149.95 84.7679 149.762C84.4105 149.574 84.0084 149.487 83.6053 149.512C83.2947 149.534 82.9911 149.615 82.71 149.749C82.4393 149.879 82.201 150.068 82.0122 150.302C81.8155 150.53 81.6636 150.794 81.5646 151.078C81.4602 151.374 81.4155 151.687 81.4329 152C81.4525 152.41 81.5747 152.808 81.7884 153.159C82.0014 153.498 82.2955 153.778 82.6442 153.975C83.0053 154.176 83.417 154.267 83.8291 154.238C84.2415 154.224 84.6412 154.093 84.9817 153.859C85.3221 153.626 85.589 153.301 85.7513 152.922C85.9234 152.556 86.0047 152.154 85.9883 151.75ZM91.5838 141.902L88.7005 144.535L89.1613 146.997L91.7945 144.548H91.8735L93.8352 155.081L96.6263 154.554L94.1643 141.388L91.5838 141.902ZM107.264 144.101C107.6 145.073 107.799 146.088 107.857 147.115C107.895 147.962 107.784 148.809 107.528 149.617C107.283 150.331 106.872 150.976 106.33 151.5C105.766 152.038 105.085 152.439 104.342 152.671C103.569 152.94 102.743 153.022 101.932 152.908C101.199 152.816 100.504 152.53 99.9178 152.079C99.343 151.638 98.8899 151.058 98.6012 150.394L101.234 149.525C101.456 149.92 101.811 150.223 102.235 150.381C102.662 150.523 103.124 150.523 103.552 150.381C103.941 150.266 104.292 150.045 104.564 149.743C104.836 149.44 105.019 149.069 105.092 148.669C105.274 147.597 105.16 146.495 104.763 145.483H104.684C104.618 145.915 104.461 146.328 104.223 146.694C103.978 147.072 103.671 147.406 103.315 147.682C102.917 147.973 102.472 148.191 101.998 148.327C101.309 148.574 100.565 148.625 99.8492 148.473C99.1332 148.322 98.4732 147.975 97.9429 147.471C97.3834 146.935 96.9709 146.264 96.7448 145.522C96.4619 144.729 96.4027 143.872 96.5737 143.047C96.7538 142.246 97.1552 141.512 97.7323 140.928C98.3064 140.378 98.9835 139.947 99.7246 139.66C100.466 139.373 101.256 139.236 102.051 139.255C102.74 139.273 103.415 139.449 104.026 139.769C104.724 140.14 105.328 140.667 105.79 141.309C106.438 142.148 106.937 143.092 107.264 144.101ZM103.854 144.101C103.878 143.789 103.842 143.477 103.749 143.179C103.618 142.795 103.392 142.45 103.091 142.178C102.803 141.905 102.449 141.71 102.064 141.612C101.668 141.501 101.249 141.501 100.853 141.612C100.457 141.727 100.105 141.956 99.8388 142.27C99.5777 142.575 99.4007 142.943 99.3253 143.337C99.2445 143.741 99.2764 144.16 99.4175 144.548C99.5446 144.942 99.7661 145.299 100.063 145.588C100.351 145.856 100.705 146.043 101.09 146.128C101.441 146.202 101.805 146.193 102.153 146.102C102.5 146.011 102.821 145.839 103.091 145.601C103.318 145.409 103.502 145.172 103.631 144.904C103.756 144.648 103.832 144.371 103.854 144.087V144.101ZM112.557 141.889C111.923 140.508 111.079 139.233 110.056 138.11C109.078 137.038 107.919 136.146 106.632 135.477L104.223 136.609C104.974 137.007 105.665 137.507 106.277 138.097C107.802 139.508 109.045 141.197 109.937 143.074C110.267 143.791 110.548 144.53 110.78 145.285C110.999 146.042 111.171 146.811 111.293 147.589C111.41 148.308 111.472 149.034 111.477 149.762C111.482 150.381 111.42 150.999 111.293 151.605L113.702 150.46C114.013 149.055 114.075 147.607 113.887 146.181C113.671 144.685 113.222 143.232 112.557 141.875V141.889ZM122.932 140.835V140.756L123.445 138.123C123.688 137.136 123.864 136.133 123.972 135.121C124.069 134.475 124.069 133.819 123.972 133.173C123.839 132.623 123.592 132.107 123.248 131.659C122.84 131.063 122.261 130.604 121.589 130.342C120.898 130.074 120.145 130.005 119.416 130.145C118.569 130.303 117.768 130.649 117.073 131.158C116.358 131.629 115.762 132.26 115.335 133.002C114.96 133.667 114.782 134.425 114.822 135.187C114.881 135.986 115.164 136.753 115.638 137.399L117.85 135.872C117.619 135.563 117.47 135.201 117.415 134.819C117.371 134.48 117.431 134.135 117.586 133.831C117.763 133.499 118.021 133.218 118.337 133.015C118.629 132.803 118.968 132.663 119.324 132.607C119.658 132.553 120 132.594 120.312 132.725C120.637 132.876 120.914 133.113 121.115 133.41C121.31 133.689 121.44 134.009 121.497 134.345C121.55 134.716 121.55 135.093 121.497 135.464C121.446 135.955 121.367 136.443 121.26 136.925L119.825 143.284L120.983 144.969L128.883 139.519L127.566 137.61L122.932 140.835ZM135.861 129.144C136.257 130.097 136.358 131.148 136.15 132.159C135.929 133.175 135.395 134.096 134.623 134.792C133.906 135.513 132.988 135.999 131.99 136.188C130.967 136.341 129.922 136.185 128.988 135.74C126.656 134.583 124.809 132.638 123.774 130.25C123.374 129.302 123.286 128.252 123.523 127.25C123.759 126.249 124.309 125.349 125.091 124.681C125.805 123.955 126.724 123.463 127.724 123.272C128.735 123.111 129.77 123.253 130.7 123.68C131.857 124.221 132.891 124.991 133.741 125.945C134.647 126.859 135.367 127.941 135.861 129.131V129.144ZM133.53 130.948C133.187 129.801 132.546 128.766 131.674 127.946C131.101 127.306 130.435 126.756 129.699 126.313C129.192 125.999 128.61 125.827 128.014 125.813C127.523 125.821 127.052 126.013 126.697 126.353C126.424 126.619 126.229 126.955 126.134 127.324C126.039 127.693 126.047 128.081 126.157 128.446C126.514 129.579 127.153 130.603 128.014 131.422C128.602 132.06 129.275 132.614 130.015 133.068C130.525 133.388 131.111 133.565 131.713 133.581C132.207 133.571 132.678 133.373 133.03 133.028C133.3 132.76 133.49 132.423 133.579 132.053C133.667 131.683 133.65 131.296 133.53 130.935V130.948ZM131.121 118.388L130.686 122.337L132.648 123.904L133.069 120.31L141.43 127.011L143.207 124.813L132.754 116.413L131.121 118.388ZM138.533 117.953L140.403 119.138L143.694 113.977L141.825 112.792L138.533 117.953ZM151.765 106.38C152.12 107.045 152.309 107.786 152.318 108.539C152.323 109.318 152.152 110.088 151.818 110.791C151.482 111.537 150.977 112.196 150.343 112.713C149.769 113.173 149.087 113.481 148.362 113.607C147.637 113.734 146.892 113.675 146.196 113.437L147.381 110.909C147.823 111.025 148.291 110.973 148.697 110.765C149.107 110.546 149.428 110.193 149.606 109.764C149.794 109.403 149.876 108.997 149.844 108.592C149.811 108.187 149.665 107.799 149.422 107.473C148.757 106.61 147.875 105.938 146.867 105.524V105.617C147.14 105.958 147.337 106.353 147.447 106.775C147.555 107.205 147.587 107.651 147.539 108.092C147.488 108.549 147.359 108.995 147.157 109.408C146.863 110.079 146.388 110.654 145.786 111.07C145.184 111.486 144.478 111.727 143.747 111.765C142.942 111.807 142.14 111.648 141.411 111.304C140.683 110.959 140.051 110.439 139.573 109.79C139.114 109.111 138.85 108.318 138.81 107.499C138.803 106.705 138.953 105.917 139.251 105.18C139.55 104.444 139.99 103.773 140.548 103.207C141.033 102.718 141.623 102.345 142.272 102.115C143.023 101.869 143.818 101.788 144.603 101.878C145.636 102.017 146.64 102.319 147.578 102.773C148.526 103.194 149.412 103.744 150.211 104.405C150.842 104.962 151.368 105.626 151.765 106.367V106.38ZM145.854 106.894C145.855 106.597 145.801 106.302 145.696 106.025C145.586 105.743 145.425 105.484 145.222 105.261C145.014 105.034 144.763 104.851 144.484 104.721C144.114 104.55 143.706 104.478 143.299 104.511C142.9 104.533 142.514 104.66 142.18 104.879C141.835 105.102 141.564 105.423 141.403 105.801C141.22 106.172 141.147 106.588 141.193 106.999C141.234 107.394 141.379 107.771 141.614 108.092C141.858 108.425 142.185 108.688 142.562 108.855C142.935 109.034 143.347 109.116 143.76 109.092C144.151 109.07 144.529 108.943 144.853 108.724C145.149 108.516 145.393 108.243 145.567 107.925C145.74 107.608 145.838 107.255 145.854 106.894ZM154.885 94.5178L157.15 95.1761L156.413 97.8093L154.135 97.1642L152.371 103.352L150.225 102.694L143.286 94.8865L143.813 93.0432L144.26 91.4765L152.739 93.8859L153.2 92.2796L155.386 92.9116L154.885 94.5178ZM150.936 99.9422L151.936 96.4532L146.459 94.8865V94.9918L150.857 99.9158L150.936 99.9422ZM158.572 83.9061C158.993 85.6836 158.759 87.5533 157.913 89.1725C157.552 89.8488 157.027 90.4238 156.386 90.8445C155.783 91.2117 155.072 91.3605 154.372 91.2658C153.841 91.2033 153.334 91.0087 152.897 90.6997C152.462 90.3884 152.104 89.9802 151.853 89.5073C151.601 89.0344 151.463 88.5097 151.449 87.9744H151.423C151.194 88.6523 150.726 89.2235 150.106 89.5806C149.509 89.951 148.801 90.1001 148.105 90.0019C147.44 89.9334 146.818 89.641 146.341 89.1725C145.83 88.6722 145.462 88.0451 145.274 87.3556C145.048 86.5599 144.99 85.7261 145.103 84.9067C145.187 84.0798 145.447 83.2806 145.867 82.5632C146.22 81.9404 146.728 81.419 147.341 81.0491C147.924 80.7187 148.598 80.5849 149.264 80.6673C149.96 80.75 150.607 81.071 151.094 81.5758C151.576 82.0739 151.865 82.7272 151.91 83.419H152.002C152.162 82.921 152.428 82.4639 152.783 82.0796C153.138 81.6953 153.572 81.3931 154.056 81.194C154.557 80.996 155.101 80.9281 155.636 80.9965C156.335 81.0815 156.985 81.4018 157.479 81.9049C158.021 82.4594 158.411 83.1441 158.611 83.893L158.572 83.9061ZM150.672 84.6302C150.563 84.329 150.371 84.0644 150.119 83.8666C149.858 83.6732 149.55 83.5509 149.227 83.5117C148.904 83.4725 148.576 83.5176 148.276 83.6428C147.996 83.776 147.755 83.9802 147.578 84.2353C147.393 84.5329 147.276 84.8678 147.235 85.216C147.194 85.5642 147.23 85.9171 147.341 86.2497C147.445 86.5434 147.627 86.803 147.868 87.0001C148.121 87.2022 148.428 87.3257 148.75 87.3556C149.076 87.401 149.409 87.3554 149.711 87.2239C149.999 87.0901 150.244 86.8808 150.422 86.6183C150.614 86.3254 150.736 85.9919 150.778 85.644C150.822 85.2972 150.782 84.9446 150.659 84.6171L150.672 84.6302ZM156.623 85.1832C156.509 84.8479 156.31 84.5484 156.044 84.3143C155.769 84.0897 155.435 83.9481 155.083 83.9061C154.718 83.8608 154.348 83.9202 154.016 84.0773C153.693 84.2434 153.417 84.4879 153.213 84.7882C153.002 85.1263 152.867 85.5068 152.819 85.9028C152.771 86.2988 152.812 86.7004 152.937 87.0791C153.052 87.4242 153.262 87.7299 153.542 87.9612C153.823 88.1958 154.166 88.3424 154.53 88.3825C154.88 88.4272 155.236 88.3725 155.557 88.2245C155.877 88.0651 156.146 87.8187 156.334 87.5136C156.546 87.1704 156.677 86.783 156.715 86.3813C156.771 85.9748 156.736 85.5608 156.61 85.1701L156.623 85.1832ZM152.279 68.897C153.565 68.8215 154.853 69.0004 156.07 69.4237C157.046 69.7574 157.899 70.3766 158.519 71.2011C159.118 72.0391 159.444 73.0412 159.454 74.0712C159.521 75.1012 159.262 76.1262 158.714 77.0007C158.166 77.8751 157.356 78.5546 156.399 78.9426C154.002 79.8921 151.35 79.9805 148.895 79.1927C148.185 78.9163 147.543 78.489 147.014 77.9404C146.485 77.3918 146.082 76.735 145.831 76.0152C145.581 75.2955 145.49 74.5299 145.564 73.7715C145.638 73.0131 145.876 72.2798 146.262 71.6224C146.82 70.764 147.616 70.0868 148.553 69.6738C149.724 69.1618 150.987 68.8931 152.265 68.8839L152.279 68.897ZM152.384 71.7935C151.527 71.807 150.676 71.9399 149.856 72.1885C149.281 72.3598 148.762 72.6827 148.355 73.1233C148.042 73.489 147.878 73.9588 147.894 74.4399C147.911 74.821 148.033 75.1901 148.247 75.5061C148.461 75.8221 148.758 76.0728 149.106 76.2304C150.184 76.7243 151.374 76.9241 152.555 76.8097C153.447 76.8014 154.333 76.6684 155.188 76.4147C155.765 76.2382 156.286 75.9163 156.702 75.48C157.018 75.1156 157.182 74.6449 157.163 74.1634C157.146 73.7804 157.023 73.4097 156.806 73.0933C156.59 72.7768 156.289 72.5273 155.939 72.3728C154.825 71.854 153.592 71.6491 152.371 71.7804L152.384 71.7935ZM10.2977 78.0736C11.3005 77.6566 12.1636 76.9624 12.7861 76.0724C13.3882 75.1636 13.7297 74.1072 13.7735 73.0179C13.8193 72.322 13.7481 71.6233 13.5628 70.9509C13.3818 70.3364 13.0968 69.7576 12.7202 69.2393C12.3646 68.7245 11.9185 68.2784 11.4036 67.9228C10.8583 67.576 10.2569 67.3265 9.62625 67.1855L9.50776 69.2262C9.88705 69.3413 10.2403 69.5291 10.5479 69.7791C10.8566 70.0085 11.1237 70.2891 11.3378 70.6086C11.5544 70.9334 11.7105 71.2947 11.7986 71.675C11.894 72.0713 11.9295 72.4795 11.9039 72.8863C11.8781 73.6144 11.6402 74.3191 11.2193 74.9138C10.7692 75.5179 10.1509 75.9758 9.44193 76.2304C8.55392 76.5545 7.60573 76.6804 6.66393 76.5991C5.72983 76.5927 4.8085 76.3815 3.96492 75.9803C3.28723 75.6407 2.72414 75.1097 2.34552 74.453C1.99698 73.8316 1.83258 73.1238 1.87155 72.4123C1.87687 71.9633 1.95696 71.5184 2.10854 71.0957C2.23685 70.753 2.41908 70.433 2.64834 70.1478C2.89503 69.8504 3.19397 69.6005 3.53045 69.4105C3.89134 69.2056 4.2899 69.0757 4.70221 69.0287L4.82071 66.988C4.13879 67.0524 3.47416 67.2397 2.85899 67.5409C2.29385 67.8232 1.78865 68.2122 1.37125 68.6864C0.965553 69.1661 0.648972 69.7145 0.43647 70.3058C0.191526 70.9374 0.0492898 71.6041 0.0151619 72.2807C-0.0634365 73.3662 0.164669 74.452 0.673456 75.4141C1.19401 76.3717 1.98047 77.1581 2.93799 77.6787C4.06213 78.2942 5.31689 78.6327 6.5981 78.6661C7.86097 78.7682 9.12986 78.565 10.2977 78.0736ZM14.1421 60.1944V60.2734C14.677 60.7367 15.0275 61.3769 15.1296 62.0771C15.2041 62.5594 15.1817 63.0518 15.0638 63.5253C14.9394 64.1062 14.6926 64.6538 14.3396 65.1316C14.0036 65.5762 13.5465 65.9145 13.023 66.1059C12.4669 66.2932 11.8693 66.3206 11.2983 66.1849C10.8086 66.1026 10.3522 65.8835 9.98173 65.5529C9.69033 65.2645 9.47734 64.9065 9.36293 64.5128C9.26387 64.0812 9.21964 63.6389 9.23127 63.1962C9.20548 62.7226 9.20548 62.2479 9.23127 61.7743C9.23127 61.1818 9.34977 60.6815 9.38926 60.3129C9.44209 60.0301 9.44209 59.7399 9.38926 59.4571C9.35411 59.3627 9.29383 59.2797 9.21494 59.217C9.13605 59.1544 9.04154 59.1145 8.94163 59.1016C8.69566 59.0169 8.43438 58.986 8.17544 59.011C7.9165 59.036 7.66594 59.1163 7.44071 59.2464C7.01886 59.5662 6.73981 60.0392 6.66393 60.563C6.52632 61.0949 6.55855 61.6566 6.75609 62.1693C6.92236 62.5582 7.19077 62.8948 7.53288 63.1435L6.72976 64.8419C6.20886 64.5151 5.7787 64.0623 5.479 63.5253C5.20342 63.031 5.03729 62.4832 4.99186 61.9191C4.94685 61.3371 4.98677 60.7517 5.11036 60.1812C5.2073 59.7594 5.34852 59.349 5.53166 58.9568C5.72857 58.5717 5.99148 58.2241 6.30845 57.9299C6.65312 57.5906 7.07933 57.3457 7.54604 57.2189C8.15024 57.0605 8.78507 57.0605 9.38926 57.2189L15.9722 58.654L15.4851 60.563L14.1421 60.1944ZM13.5892 61.3398C13.4854 60.9385 13.2656 60.5767 12.9572 60.2997C12.6771 60.0276 12.3256 59.8405 11.9434 59.7599L10.6269 59.4834C10.6844 59.6212 10.7156 59.7686 10.719 59.9179C10.7322 60.1459 10.7322 60.3745 10.719 60.6025C10.719 60.8658 10.719 61.116 10.719 61.353C10.719 61.59 10.719 61.8006 10.719 61.9586C10.6725 62.3126 10.6725 62.6711 10.719 63.025C10.747 63.3251 10.8563 63.6118 11.035 63.8545C11.2147 64.1009 11.4844 64.2665 11.7855 64.3153C11.9917 64.3662 12.2072 64.3664 12.4135 64.316C12.6198 64.2655 12.8109 64.1659 12.9704 64.0257C13.3287 63.6712 13.5601 63.2084 13.6287 62.7091C13.7306 62.2566 13.717 61.7857 13.5892 61.3398ZM17.1308 54.9675L4.45206 50.7413L3.83327 52.6635L16.5647 56.8897L17.1308 54.9675ZM18.6185 51.0178L6.24262 46.0806L5.5185 47.8975L17.9471 52.9268L18.6185 51.0178ZM19.8166 43.4474C20.6761 43.4714 21.5249 43.2523 22.2655 42.8154C23.1145 42.327 23.8328 41.6404 24.3589 40.8142C24.9068 40.0312 25.2589 39.1282 25.3858 38.181C25.4908 37.3347 25.3681 36.4757 25.0303 35.6927C24.64 34.907 24.0381 34.2458 23.2924 33.7836L15.8142 28.9649L14.6951 30.6633L21.9495 35.3899C22.4237 35.6908 22.8134 36.1077 23.0818 36.6011C23.3545 37.0808 23.4783 37.6308 23.4373 38.181C23.3802 38.7909 23.1671 39.3758 22.8185 39.8794C22.4925 40.4011 22.0395 40.8314 21.5019 41.1302C21.0274 41.3905 20.4882 41.5093 19.9483 41.4725C19.3828 41.4375 18.8371 41.251 18.3684 40.9327L11.1272 36.2062L10.0212 37.8914L17.3941 42.7101C18.1278 43.2041 18.9853 43.4824 19.8693 43.5132L19.8166 43.4474ZM22.7658 30.2815C23.2394 30.7367 23.8731 30.9874 24.53 30.9793C25.3147 30.9143 26.062 30.6163 26.6761 30.1235L28.098 29.1229C28.4117 28.8782 28.7838 28.7193 29.1776 28.6621C29.3267 28.6417 29.4785 28.6547 29.622 28.7002C29.7655 28.7458 29.897 28.8227 30.007 28.9254C30.1508 29.0645 30.2574 29.2374 30.3172 29.4283C30.377 29.6191 30.388 29.822 30.3493 30.0182C30.2468 30.5498 29.9904 31.0397 29.612 31.4269C29.2873 31.8165 28.8506 32.0968 28.3613 32.2301C27.9118 32.3348 27.4391 32.2591 27.0447 32.0194L25.9914 33.6125C26.3407 33.8431 26.7336 33.9995 27.1458 34.072C27.558 34.1445 27.9807 34.1315 28.3876 34.0338C29.3246 33.7692 30.1599 33.2277 30.7838 32.4802C31.2826 31.9417 31.6717 31.3112 31.9292 30.6238C32.1481 30.0489 32.2028 29.4244 32.0872 28.8201C31.9742 28.253 31.6837 27.7366 31.2578 27.3455C31.0268 27.1214 30.7521 26.9473 30.4508 26.8341C30.1495 26.7208 29.8282 26.6708 29.5067 26.6872C28.7341 26.769 27.9998 27.0654 27.387 27.543L26.0704 28.4778C25.723 28.7504 25.3176 28.9396 24.8855 29.0308C24.7322 29.0563 24.5751 29.0459 24.4265 29.0002C24.278 28.9545 24.1421 28.8748 24.0297 28.7674C23.8874 28.6361 23.7822 28.4696 23.7244 28.2848C23.6666 28.0999 23.6584 27.9032 23.7006 27.7142C23.7798 27.2182 24.0096 26.7585 24.3589 26.3976C24.5839 26.1301 24.8678 25.9183 25.1883 25.7788C25.4456 25.6682 25.725 25.6187 26.0046 25.634C26.2503 25.6549 26.4907 25.7172 26.7156 25.8183L27.6635 24.3305C26.986 23.9561 26.1989 23.8304 25.4385 23.9751C24.5562 24.1984 23.7678 24.6963 23.1871 25.397C22.7158 25.9017 22.3528 26.4976 22.1207 27.148C21.9148 27.6939 21.8602 28.2853 21.9627 28.8596C22.0872 29.4134 22.3874 29.9122 22.8185 30.2815H22.7658ZM33.812 13.89L40.5529 23.4089L42.1986 22.2372L35.563 12.7314L38.973 10.3089L37.9724 8.88697L29.5067 14.8906L30.5205 16.3125L33.812 13.89ZM42.7779 15.7991C42.3368 14.9881 42.0847 14.088 42.0406 13.1659C42.0139 12.3328 42.2288 11.5097 42.6594 10.796C43.1186 10.0592 43.7755 9.46613 44.5553 9.08445C45.3145 8.665 46.1783 8.47303 47.0437 8.53149C47.8747 8.5961 48.6697 8.89767 49.3345 9.40044C50.077 9.95199 50.681 10.6687 51.0988 11.4938C51.5469 12.3018 51.7995 13.2037 51.836 14.127C51.8581 14.9554 51.6434 15.7729 51.2172 16.4837C50.762 17.2238 50.104 17.8178 49.3214 18.1952C48.5607 18.6118 47.699 18.8078 46.833 18.7614C46.0069 18.6929 45.2171 18.3916 44.5553 17.8924C43.804 17.3468 43.1945 16.6289 42.7779 15.7991ZM43.976 13.1659C44.0655 13.7628 44.2523 14.341 44.529 14.8774C44.804 15.4141 45.1692 15.8995 45.6086 16.3125C45.973 16.6724 46.4279 16.9271 46.9252 17.0498C47.4679 17.1376 48.0244 17.0402 48.5051 16.7733C49.0057 16.5434 49.4074 16.1417 49.6373 15.6411C49.8508 15.1529 49.9194 14.6136 49.8348 14.0875C49.75 13.4895 49.563 12.9105 49.2819 12.3759C49.0034 11.8414 48.6386 11.3565 48.2023 10.9408C47.8344 10.5856 47.3808 10.3315 46.8857 10.2036C46.3445 10.0984 45.7836 10.1919 45.3058 10.4669C44.8078 10.7006 44.4072 11.1011 44.1735 11.5991C43.9604 12.0921 43.8919 12.6355 43.976 13.1659ZM52.468 10.8487C52.1404 9.94789 52.0189 8.98511 52.1125 8.03118C52.1944 7.24431 52.4954 6.4962 52.9815 5.87198C53.4614 5.26437 54.1057 4.80739 54.8379 4.55539C55.3244 4.3708 55.8497 4.31194 56.3651 4.38424C56.7488 4.43842 57.1167 4.57301 57.4447 4.77921C57.6904 4.94151 57.9237 5.12195 58.1425 5.31901H58.2478L56.6284 0.618796L58.5375 0L62.7637 12.7182L60.96 13.3239L60.4597 11.8493H60.3017C60.2489 12.1426 60.1651 12.4295 60.0515 12.7051C59.9112 13.0704 59.6959 13.4022 59.4196 13.6793C59.0479 14.0353 58.5965 14.2971 58.103 14.443C57.3774 14.6916 56.5951 14.7237 55.8516 14.5351C55.0877 14.3205 54.3991 13.8963 53.8636 13.3107C53.2271 12.6047 52.7509 11.7693 52.468 10.8618V10.8487ZM54.0611 8.42616C54.0491 9.0345 54.1427 9.64032 54.3376 10.2167C54.5235 10.8101 54.8182 11.3637 55.2065 11.8493C55.5252 12.2713 55.9598 12.5916 56.4573 12.7709C56.9508 12.9488 57.491 12.9488 57.9845 12.7709C58.5052 12.6232 58.9574 12.297 59.2616 11.8493C59.5408 11.4118 59.6955 10.9066 59.7092 10.3879C59.7164 9.75623 59.6139 9.12813 59.4064 8.53149C59.2168 7.93567 58.9225 7.3784 58.5375 6.88575C58.2215 6.48127 57.7968 6.17527 57.313 6.00364C56.8273 5.83302 56.2979 5.83302 55.8121 6.00364C55.2827 6.1403 54.8173 6.4568 54.4956 6.89892C54.2069 7.36051 54.0562 7.89495 54.0611 8.43933V8.42616ZM71.1109 4.3974L72.23 10.9803L70.3604 11.3095L70.1234 9.9929H70.0444C69.9471 10.2918 69.8003 10.5722 69.61 10.8224C69.3757 11.1289 69.0853 11.388 68.7542 11.586C67.8022 12.1226 66.6806 12.2734 65.6207 12.0073C65.0922 11.8709 64.613 11.5879 64.2383 11.191C63.8507 10.7496 63.5992 10.2055 63.5142 9.62426C63.4111 9.14661 63.4431 8.64972 63.6063 8.18917C63.7547 7.79361 64.0044 7.444 64.3305 7.1754C64.6792 6.89587 65.0646 6.66551 65.4759 6.49078C65.9058 6.3051 66.3453 6.14249 66.7925 6.00364L68.2144 5.5955C68.5007 5.53827 68.7734 5.42653 69.0175 5.26635C69.0932 5.20105 69.1493 5.11601 69.1796 5.0207C69.2098 4.92538 69.2129 4.82355 69.1887 4.72655C69.1796 4.46348 69.1109 4.20591 68.9877 3.97327C68.8646 3.74064 68.6902 3.53902 68.4777 3.38363C68.0298 3.11836 67.4961 3.03807 66.99 3.15981C66.4389 3.22393 65.9248 3.46939 65.5285 3.8576C65.2341 4.15707 65.025 4.5298 64.9229 4.9372L63.0402 4.83188C63.1314 4.24387 63.3666 3.68755 63.7248 3.21247C64.0848 2.76937 64.5332 2.40616 65.0414 2.14604C65.5666 1.8898 66.1249 1.70812 66.7003 1.60624C67.1356 1.53726 67.5765 1.51081 68.0169 1.52724C68.4691 1.54763 68.9145 1.64561 69.3335 1.81689C69.777 2.01459 70.1656 2.31736 70.4658 2.699C70.8172 3.20349 71.0387 3.78684 71.1109 4.3974ZM69.7153 7.74154L69.5046 6.42495C69.4027 6.53568 69.2766 6.62131 69.136 6.6751C68.9283 6.77995 68.7126 6.868 68.4909 6.93842L67.7799 7.1754L67.1611 7.39922C66.8225 7.50508 66.4959 7.6463 66.1868 7.82053C65.9153 7.95718 65.6873 8.16693 65.5285 8.42616C65.3864 8.69218 65.34 8.99893 65.3969 9.29511C65.4191 9.50739 65.4963 9.71018 65.621 9.88339C65.7458 10.0566 65.9136 10.1942 66.1079 10.2825C66.5558 10.4752 67.0521 10.5257 67.5298 10.4274C68.0077 10.3553 68.4602 10.1652 68.8464 9.87441C69.1729 9.61706 69.4232 9.27572 69.5705 8.88697C69.7238 8.52591 69.7739 8.12939 69.7153 7.74154ZM76.2982 11.5596C76.197 11.926 76.0122 12.264 75.7584 12.5471C75.5655 12.7418 75.3079 12.8589 75.0343 12.8762C74.711 12.9016 74.3858 12.8704 74.0732 12.7841L73.6519 14.4035C73.8263 14.4676 74.0074 14.5117 74.1917 14.5351C74.4587 14.5624 74.7278 14.5624 74.9948 14.5351C75.4698 14.5399 75.9406 14.4457 76.3772 14.2586C76.779 14.0534 77.1299 13.7611 77.4042 13.4029C77.7057 13.0062 77.9373 12.561 78.0888 12.0863L81.8674 0.526635H79.774L77.47 8.42616H77.3778L74.5735 0.763621L72.4275 0.82945L76.3772 10.8882L76.2982 11.5596Z" fill="#153339"/>
</svg>
