<svg width="48" height="31" viewBox="0 0 48 31" fill="none" xmlns="http://www.w3.org/2000/svg">
<g id="discover logo" clip-path="url(#clip0_128_4521)">
<g id="Group">
<path id="Vector" fill-rule="evenodd" clip-rule="evenodd" d="M3.79952 0.625C1.97762 0.625 0.5 2.1028 0.5 3.92524V27.3848C0.5 29.2076 1.97714 30.685 3.79952 30.685H44.2005C46.0224 30.685 47.5 29.2072 47.5 27.3848V3.92524C47.5 2.10244 46.0229 0.625 44.2005 0.625L3.79952 0.625Z" fill="white"/>
<path id="Vector_2" fill-rule="evenodd" clip-rule="evenodd" d="M20.1291 10.3379C20.6593 10.3379 21.104 10.4449 21.6452 10.7033V12.0684C21.1325 11.5966 20.6879 11.3991 20.0998 11.3991C18.944 11.3991 18.035 12.3 18.035 13.4421C18.035 14.6466 18.9158 15.4939 20.1572 15.4939C20.7159 15.4939 21.1523 15.3067 21.6452 14.8425V16.2082C21.0847 16.4566 20.6305 16.5548 20.0998 16.5548C18.2231 16.5548 16.7649 15.199 16.7649 13.4506C16.7649 11.721 18.2619 10.3379 20.1291 10.3379ZM14.3023 10.3755C14.9951 10.3755 15.6289 10.5987 16.1589 11.0352L15.514 11.83C15.193 11.4913 14.8894 11.3484 14.5202 11.3484C13.989 11.3484 13.6022 11.6331 13.6022 12.0077C13.6022 12.3289 13.8193 12.499 14.5588 12.7566C15.9607 13.2393 16.3762 13.6672 16.3762 14.6122C16.3762 15.7638 15.4776 16.5654 14.197 16.5654C13.2592 16.5654 12.5774 16.2177 12.0095 15.433L12.8056 14.7112C13.0894 15.2278 13.5629 15.5046 14.1508 15.5046C14.7006 15.5046 15.1076 15.1474 15.1076 14.6655C15.1076 14.4157 14.9843 14.2015 14.7381 14.05C14.6142 13.9783 14.3687 13.8714 13.8861 13.7112C12.7287 13.3189 12.3315 12.8996 12.3315 12.0801C12.3315 11.1066 13.1844 10.3755 14.3023 10.3755ZM28.3857 10.4792H29.7319L31.4169 14.4747L33.1237 10.4792H34.4597L31.7301 16.5804H31.0669L28.3857 10.4792ZM4.5448 10.4883H6.3538C8.35252 10.4883 9.74584 11.7112 9.74584 13.4668C9.74584 14.3422 9.3196 15.1885 8.59876 15.7502C7.99228 16.2243 7.3012 16.4369 6.34432 16.4369H4.5448V10.4883ZM10.3129 10.4883H11.5453V16.4369H10.3129V10.4883ZM35.0169 10.4883H38.5121V11.4963H36.2486V12.8166H38.4287V13.8241H36.2486V15.4298H38.5121V16.4369H35.017L35.0169 10.4883ZM39.3284 10.4883H41.1557C42.5771 10.4883 43.3916 11.1309 43.3916 12.2446C43.3916 13.1554 42.8808 13.753 41.9525 13.9309L43.9413 16.4369H42.4257L40.72 14.0472H40.5593V16.4369H39.3284V10.4883ZM40.5593 11.4253V13.2268H40.9194C41.7065 13.2268 42.1236 12.9051 42.1236 12.3071C42.1236 11.7282 41.7063 11.4253 40.9389 11.4253H40.5593ZM5.77636 11.4963V15.4298H6.10708C6.90346 15.4298 7.40644 15.2862 7.79368 14.957C8.21986 14.5997 8.47624 14.0291 8.47624 13.4582C8.47624 12.8883 8.21986 12.3347 7.79368 11.9773C7.38658 11.6305 6.90346 11.4963 6.10708 11.4963H5.77636Z" fill="#002932"/>
<path id="Vector_3" fill-rule="evenodd" clip-rule="evenodd" d="M25.6253 10.1251C27.4804 10.1251 28.9841 11.5478 28.9841 13.3052V13.3072C28.9841 15.0648 27.4804 16.4894 25.6253 16.4894C23.7703 16.4894 22.2665 15.0647 22.2665 13.3072V13.3052C22.2665 11.5477 23.7703 10.125 25.6253 10.125L25.6253 10.1251ZM47.4999 17.7966C45.9381 18.9026 34.245 26.807 14 30.625H44.203C46.0235 30.625 47.5 29.139 47.5 27.3063V17.7964L47.4999 17.7966Z" fill="#F47216"/>
</g>
</g>
<defs>
<clipPath id="clip0_128_4521">
<rect width="47" height="30" fill="white" transform="translate(0.5 0.625)"/>
</clipPath>
</defs>
</svg>
