<svg width="15" height="14" viewBox="0 0 15 14" fill="none" xmlns="http://www.w3.org/2000/svg">
<g id="Component 1">
<mask id="mask0_579_6663" style="mask-type:alpha" maskUnits="userSpaceOnUse" x="0" y="0" width="15" height="14">
<rect id="Bounding box" x="0.5" width="14" height="14" fill="#002932"/>
</mask>
<g mask="url(#mask0_579_6663)">
<path id="call" d="M12.1375 12.25C10.9222 12.25 9.72153 11.9851 8.53542 11.4552C7.34931 10.9253 6.27014 10.1743 5.29792 9.20208C4.32569 8.22986 3.57465 7.15069 3.04479 5.96458C2.51493 4.77847 2.25 3.57778 2.25 2.3625C2.25 2.1875 2.30833 2.04167 2.425 1.925C2.54167 1.80833 2.6875 1.75 2.8625 1.75H5.225C5.36111 1.75 5.48264 1.79618 5.58958 1.88854C5.69653 1.9809 5.75972 2.09028 5.77917 2.21667L6.15833 4.25833C6.17778 4.41389 6.17292 4.54514 6.14375 4.65208C6.11458 4.75903 6.06111 4.85139 5.98333 4.92917L4.56875 6.35833C4.76319 6.71806 4.9941 7.06562 5.26146 7.40104C5.52882 7.73646 5.82292 8.05972 6.14375 8.37083C6.44514 8.67222 6.76111 8.95174 7.09167 9.20937C7.42222 9.46701 7.77222 9.70278 8.14167 9.91667L9.5125 8.54583C9.6 8.45833 9.71424 8.39271 9.85521 8.34896C9.99618 8.30521 10.1347 8.29306 10.2708 8.3125L12.2833 8.72083C12.4194 8.75972 12.5312 8.83021 12.6187 8.93229C12.7062 9.03437 12.75 9.14861 12.75 9.275V11.6375C12.75 11.8125 12.6917 11.9583 12.575 12.075C12.4583 12.1917 12.3125 12.25 12.1375 12.25Z" fill="#00CCF8"/>
</g>
</g>
</svg>
