<svg width="15" height="14" viewBox="0 0 15 14" fill="none" xmlns="http://www.w3.org/2000/svg">
<g id="Component 1">
<mask id="mask0_579_7846" style="mask-type:alpha" maskUnits="userSpaceOnUse" x="0" y="0" width="15" height="14">
<rect id="Bounding box" x="0.5" width="14" height="14" fill="#D9D9D9"/>
</mask>
<g mask="url(#mask0_579_7846)">
<path id="mail" d="M2.83366 11.6654C2.51283 11.6654 2.23817 11.5511 2.0097 11.3227C1.78123 11.0942 1.66699 10.8195 1.66699 10.4987V3.4987C1.66699 3.17786 1.78123 2.90321 2.0097 2.67474C2.23817 2.44627 2.51283 2.33203 2.83366 2.33203H12.167C12.4878 2.33203 12.7625 2.44627 12.991 2.67474C13.2194 2.90321 13.3337 3.17786 13.3337 3.4987V10.4987C13.3337 10.8195 13.2194 11.0942 12.991 11.3227C12.7625 11.5511 12.4878 11.6654 12.167 11.6654H2.83366ZM7.50033 7.58203L12.167 4.66536V3.4987L7.50033 6.41536L2.83366 3.4987V4.66536L7.50033 7.58203Z" fill="#00CCF8"/>
</g>
</g>
</svg>
