<svg width="15" height="14" viewBox="0 0 15 14" fill="none" xmlns="http://www.w3.org/2000/svg">
<g id="Component 1">
<mask id="mask0_579_10118" style="mask-type:alpha" maskUnits="userSpaceOnUse" x="0" y="0" width="15" height="14">
<rect id="Bounding box" x="0.5" width="14" height="14" fill="#D9D9D9"/>
</mask>
<g mask="url(#mask0_579_10118)">
<path id="location_on" d="M7.49967 7.0013C7.82051 7.0013 8.09516 6.88707 8.32363 6.65859C8.5521 6.43012 8.66634 6.15547 8.66634 5.83464C8.66634 5.5138 8.5521 5.23915 8.32363 5.01068C8.09516 4.78221 7.82051 4.66797 7.49967 4.66797C7.17884 4.66797 6.90419 4.78221 6.67572 5.01068C6.44724 5.23915 6.33301 5.5138 6.33301 5.83464C6.33301 6.15547 6.44724 6.43012 6.67572 6.65859C6.90419 6.88707 7.17884 7.0013 7.49967 7.0013ZM7.49967 12.8346C5.9344 11.5027 4.7653 10.2655 3.99238 9.12318C3.21947 7.98082 2.83301 6.92352 2.83301 5.9513C2.83301 4.49297 3.30211 3.33116 4.2403 2.46589C5.17849 1.60061 6.26495 1.16797 7.49967 1.16797C8.7344 1.16797 9.82086 1.60061 10.759 2.46589C11.6972 3.33116 12.1663 4.49297 12.1663 5.9513C12.1663 6.92352 11.7799 7.98082 11.007 9.12318C10.234 10.2655 9.06495 11.5027 7.49967 12.8346Z" fill="#00CCF8"/>
</g>
</g>
</svg>
