<svg width="14" height="14" viewBox="0 0 14 14" fill="none" xmlns="http://www.w3.org/2000/svg">
<g id="Component 1" clip-path="url(#clip0_128_4467)">
<path id="Vector" d="M13.7812 7C13.7812 3.25391 10.7461 0.21875 7 0.21875C3.25391 0.21875 0.21875 3.25391 0.21875 7C0.21875 10.3846 2.69855 13.1901 5.94043 13.6992V8.96027H4.21777V7H5.94043V5.50594C5.94043 3.80652 6.95215 2.86781 8.50172 2.86781C9.24383 2.86781 10.0198 3.00016 10.0198 3.00016V4.66813H9.16453C8.32234 4.66813 8.05957 5.19094 8.05957 5.72715V7H9.94027L9.63949 8.96027H8.05957V13.6992C11.3014 13.1901 13.7812 10.3846 13.7812 7Z" fill="#00CCF8"/>
</g>
<defs>
<clipPath id="clip0_128_4467">
<rect width="14" height="14" fill="white"/>
</clipPath>
</defs>
</svg>
