<svg width="16" height="16" viewBox="0 0 16 16" fill="none" xmlns="http://www.w3.org/2000/svg">
<g id="Google logo">
<path id="Vector" d="M14.0006 8.13295C14.0006 7.64103 13.9598 7.28205 13.8714 6.90979H8.12305V9.13009H11.4972C11.4292 9.68186 11.0618 10.5128 10.2455 11.0712L10.2341 11.1455L12.0516 12.5214L12.1775 12.5337C13.3339 11.49 14.0006 9.9544 14.0006 8.13295Z" fill="#4285F4"/>
<path id="Vector_2" d="M8.12179 13.983C9.77484 13.983 11.1626 13.4511 12.1762 12.5338L10.2442 11.0713C9.72724 11.4236 9.03334 11.6695 8.12179 11.6695C6.50274 11.6695 5.12859 10.6259 4.63874 9.18335L4.56694 9.18931L2.67706 10.6186L2.65234 10.6857C3.65914 12.6401 5.72719 13.983 8.12179 13.983Z" fill="#34A853"/>
<path id="Vector_3" d="M4.63945 9.18336C4.5102 8.81109 4.4354 8.4122 4.4354 8.00007C4.4354 7.58788 4.5102 7.18904 4.63265 6.81677L4.62923 6.73749L2.71566 5.28528L2.65305 5.31438C2.2381 6.12541 2 7.03616 2 8.00007C2 8.96398 2.2381 9.87468 2.65305 10.6857L4.63945 9.18336Z" fill="#FBBC05"/>
<path id="Vector_4" d="M8.12179 4.33047C9.27144 4.33047 10.0469 4.81574 10.4891 5.22128L12.217 3.57265C11.1558 2.60874 9.77484 2.01709 8.12179 2.01709C5.72719 2.01709 3.65914 3.35991 2.65234 5.31431L4.63194 6.81671C5.12859 5.37416 6.50274 4.33047 8.12179 4.33047Z" fill="#EB4335"/>
</g>
</svg>
