<svg width="16" height="16" viewBox="0 0 16 16" fill="none" xmlns="http://www.w3.org/2000/svg">
<g id="yelp logo" clip-path="url(#clip0_336_4805)">
<g id="Group">
<path id="Vector" d="M6.70091 11.2729L4.48865 13.9668C4.17739 14.3459 4.3261 14.9183 4.78247 15.0979L6.94529 15.9492C7.41187 16.1328 7.91907 15.7971 7.93233 15.2958L8.02558 11.767C8.04438 11.0556 7.1525 10.723 6.70091 11.2729Z" fill="#E82626"/>
<path id="Vector_2" d="M6.33411 8.5948L3.05325 7.41686C2.59163 7.25111 2.10253 7.58356 2.08677 8.07379L2.01211 10.3969C1.99599 10.8981 2.48269 11.2629 2.95923 11.1069L6.31406 10.0085C6.99035 9.78707 7.00383 8.83525 6.33411 8.5948Z" fill="#E82626"/>
<path id="Vector_3" d="M10.0935 8.97288L13.4541 8.04662C13.927 7.91631 14.1354 7.36287 13.866 6.953L12.5893 5.01076C12.3139 4.59178 11.7058 4.57374 11.4061 4.97572L9.29586 7.80562C8.87045 8.37606 9.40754 9.16198 10.0935 8.97288Z" fill="#E82626"/>
<path id="Vector_4" d="M7.66148 0.897267C7.68822 0.316025 7.14051 -0.12246 6.57917 0.0308391L3.9191 0.7573C3.34524 0.914015 3.10152 1.59325 3.44481 2.07907L6.49742 7.36769C6.52221 7.41063 6.54953 7.45224 6.58167 7.49003C7.03374 8.02129 7.88243 7.82443 8.09163 7.20253C8.1292 7.09081 8.13978 6.97174 8.13052 6.85421L7.66148 0.897267Z" fill="#E82626"/>
<path id="Vector_5" d="M13.4773 11.3904L10.1027 10.3542C9.42247 10.1453 8.86282 10.9154 9.27152 11.4979L11.2735 14.3516C11.5552 14.7531 12.1465 14.7633 12.4419 14.3718L13.842 12.5165C14.144 12.1163 13.9566 11.5376 13.4773 11.3904Z" fill="#E82626"/>
</g>
</g>
<defs>
<clipPath id="clip0_336_4805">
<rect width="16" height="16" fill="white"/>
</clipPath>
</defs>
</svg>
