<svg width="14" height="14" viewBox="0 0 14 14" fill="none" xmlns="http://www.w3.org/2000/svg">
<g id="Component 1" clip-path="url(#clip0_128_4470)">
<path id="Vector" d="M9.33371 7.00117V7.00058C9.33371 5.712 8.28896 4.66725 7.00038 4.66725C5.7118 4.66725 4.66705 5.712 4.66705 7.00058C4.66705 8.28917 5.7118 9.33392 7.00038 9.33392C7.64438 9.33392 8.22771 9.07258 8.65005 8.65083C9.0718 8.24192 9.33371 7.66967 9.33371 7.03617C9.33371 7.02392 9.33371 7.01167 9.33313 6.99942L9.33371 7.00117ZM10.5937 7.00117C10.5867 8.97225 8.98721 10.5677 7.01496 10.5677C5.03863 10.5677 3.43621 8.96525 3.43621 6.98892C3.43621 5.01258 5.03863 3.41017 7.01496 3.41017C8.00313 3.41017 8.89796 3.81092 9.54546 4.45842C10.1924 5.08842 10.5943 5.9675 10.5943 6.94108C10.5943 6.96208 10.5943 6.98367 10.5937 7.00467V7.00175V7.00117ZM11.5778 3.26433V3.2655C11.5778 3.72925 11.2015 4.1055 10.7378 4.1055C10.274 4.1055 9.8978 3.72925 9.8978 3.2655C9.8978 2.80175 10.274 2.4255 10.7378 2.4255C10.97 2.4255 11.18 2.51942 11.3316 2.67167C11.481 2.81808 11.5737 3.02225 11.5737 3.248V3.26492L11.5778 3.26433ZM7.00446 1.25767L6.30738 1.253C5.88505 1.24989 5.56441 1.24989 5.34546 1.253C5.12652 1.25611 4.8333 1.26525 4.4658 1.28042C4.12455 1.29208 3.8008 1.32592 3.48405 1.37958L3.52663 1.37375C3.27871 1.41458 3.0588 1.47292 2.84821 1.5505L2.8733 1.54233C2.2643 1.79025 1.79005 2.26392 1.54796 2.85717L1.54213 2.87292C1.47271 3.05842 1.41438 3.27833 1.37646 3.50467L1.37355 3.52625C1.32571 3.79983 1.29188 4.12358 1.2808 4.45317L1.28021 4.46542C1.26505 4.83331 1.25591 5.12653 1.2528 5.34508C1.24969 5.56364 1.24969 5.88428 1.2528 6.307C1.25591 6.72972 1.25746 6.96208 1.25746 7.00408C1.25746 7.04608 1.25591 7.27844 1.2528 7.70117C1.24969 8.12389 1.24969 8.44453 1.2528 8.66308C1.25591 8.88164 1.26505 9.17486 1.28021 9.54275C1.29188 9.884 1.32571 10.2078 1.37938 10.5245L1.37355 10.4819C1.41438 10.7298 1.47271 10.9498 1.5503 11.1603L1.54213 11.1353C1.79005 11.7443 2.26371 12.2185 2.85696 12.4606L2.87271 12.4664C3.05821 12.5358 3.27813 12.5942 3.50446 12.6321L3.52605 12.635C3.79963 12.6828 4.12338 12.7167 4.45238 12.7278L4.46463 12.7283C4.83252 12.7435 5.12574 12.7526 5.3443 12.7558C5.56285 12.7589 5.88349 12.7589 6.30621 12.7558L6.99921 12.7418L7.6963 12.7464C8.11863 12.7495 8.43927 12.7495 8.65821 12.7464C8.87716 12.7433 9.17038 12.7342 9.53788 12.719C9.87913 12.7073 10.2029 12.6735 10.5196 12.6198L10.477 12.6257C10.725 12.5848 10.9449 12.5265 11.1555 12.4489L11.1304 12.4571C11.7394 12.2092 12.2136 11.7355 12.4557 11.1423L12.4615 11.1265C12.531 10.941 12.5893 10.7211 12.6272 10.4948L12.6301 10.4732C12.678 10.1996 12.7118 9.87583 12.7229 9.54683L12.7235 9.53458C12.7386 9.1667 12.7478 8.87347 12.7509 8.65492C12.754 8.43636 12.754 8.11572 12.7509 7.693C12.7478 7.27028 12.7462 7.03792 12.7462 6.99592C12.7462 6.95392 12.7478 6.72156 12.7509 6.29883C12.754 5.87611 12.754 5.55547 12.7509 5.33692C12.7478 5.11836 12.7386 4.82514 12.7235 4.45725C12.7118 4.116 12.678 3.79225 12.6243 3.4755L12.6301 3.51808C12.5893 3.27017 12.531 3.05025 12.4534 2.83967L12.4615 2.86475C12.2136 2.25575 11.74 1.7815 11.1467 1.53942L11.131 1.53358C10.9455 1.46417 10.7255 1.40583 10.4992 1.36792L10.4776 1.365C10.204 1.31717 9.8803 1.28333 9.5513 1.27225L9.53905 1.27167C9.17116 1.2565 8.87794 1.24736 8.65938 1.24425C8.44082 1.24114 8.12019 1.24114 7.69746 1.24425L7.00446 1.25767ZM14.0004 7.00117C14.0004 8.39261 13.9848 9.35569 13.9537 9.89042C13.9566 9.94933 13.959 10.0182 13.959 10.087C13.959 12.2261 12.2247 13.9603 10.0856 13.9603C10.0162 13.9603 9.94738 13.9586 9.87913 13.9551L9.88846 13.9557C9.35374 13.9868 8.39066 14.0023 6.99921 14.0023C5.60777 14.0023 4.64469 13.9868 4.10996 13.9557C4.05105 13.9586 3.98221 13.9609 3.91338 13.9609C1.7743 13.9609 0.0400469 12.2267 0.0400469 10.0876C0.0400469 10.0182 0.0417969 9.94934 0.0452969 9.88108L0.0447135 9.89042C0.0136024 9.35569 -0.00195312 8.39261 -0.00195312 7.00117C-0.00195312 5.60972 0.0136024 4.64664 0.0447135 4.11192C0.0417969 4.053 0.0394635 3.98417 0.0394635 3.91533C0.0394635 1.77625 1.77371 0.042 3.9128 0.042C3.98221 0.042 4.05105 0.04375 4.1193 0.04725L4.10996 0.0466667C4.64469 0.0155556 5.60777 0 6.99921 0C8.39066 0 9.35374 0.0155556 9.88846 0.0466667C9.94738 0.04375 10.0162 0.0414167 10.085 0.0414167C12.2241 0.0414167 13.9584 1.77567 13.9584 3.91475C13.9584 3.98417 13.9566 4.053 13.9531 4.12125L13.9537 4.11192C13.9848 4.64625 14.0004 5.60933 14.0004 7.00117Z" fill="#00CCF8"/>
</g>
<defs>
<clipPath id="clip0_128_4470">
<rect width="14" height="14" fill="white"/>
</clipPath>
</defs>
</svg>
