<svg width="51" height="31" viewBox="0 0 51 31" fill="none" xmlns="http://www.w3.org/2000/svg">
<g id="mastercard-dark logo" clip-path="url(#clip0_128_4514)">
<g id="Group">
<path id="Vector" d="M48.5 0.625H2.5C1.39543 0.625 0.5 1.52043 0.5 2.625V28.625C0.5 29.7296 1.39543 30.625 2.5 30.625H48.5C49.6046 30.625 50.5 29.7296 50.5 28.625V2.625C50.5 1.52043 49.6046 0.625 48.5 0.625Z" fill="#000066"/>
<path id="Vector_2" fill-rule="evenodd" clip-rule="evenodd" d="M28.5646 15.8669C28.5646 21.2564 24.1961 25.6244 18.8071 25.6244C13.4181 25.6244 9.04956 21.2564 9.04956 15.8669C9.04956 10.4779 13.4181 6.10938 18.8071 6.10938C24.1961 6.10938 28.5646 10.4779 28.5646 15.8669Z" fill="#CC0000"/>
<path id="Vector_3" fill-rule="evenodd" clip-rule="evenodd" d="M31.907 6.10938C29.4852 6.10603 27.1493 7.00662 25.3565 8.63488C25.004 8.95488 24.675 9.29988 24.3715 9.66788H26.343C26.6127 9.99625 26.8612 10.3414 27.087 10.7014H23.627C23.4205 11.0334 23.232 11.3779 23.065 11.7349H27.6485C27.8055 12.0699 27.9435 12.4139 28.062 12.7679H22.652C22.5386 13.1067 22.444 13.4516 22.3685 13.8009H28.345C28.7137 15.5173 28.616 17.3011 28.062 18.9669H22.652C22.7705 19.3204 22.9085 19.6654 23.065 20.0004H27.6485C27.482 20.3559 27.2941 20.701 27.086 21.0339H23.6275C23.8528 21.3937 24.1013 21.7384 24.3715 22.0659H26.3425C26.0396 22.434 25.71 22.7795 25.3565 23.0994C27.1493 24.7276 29.4852 25.628 31.907 25.6244C37.296 25.6244 41.6645 21.2564 41.6645 15.8669C41.6645 10.4784 37.296 6.10938 31.907 6.10938Z" fill="#FF9900"/>
<path id="Vector_4" fill-rule="evenodd" clip-rule="evenodd" d="M16.5285 16.9351C16.4501 16.9245 16.3711 16.919 16.292 16.9186C15.6915 16.9186 15.388 17.1246 15.388 17.5316C15.388 17.7816 15.536 17.9416 15.7675 17.9416C16.199 17.9416 16.51 17.5306 16.5285 16.9351ZM17.2985 18.7286H16.421L16.441 18.3116C16.1735 18.6411 15.816 18.7981 15.331 18.7981C14.757 18.7981 14.3635 18.3501 14.3635 17.6986C14.3635 16.7186 15.048 16.1471 16.223 16.1471C16.343 16.1471 16.4975 16.1581 16.655 16.1781C16.6875 16.0451 16.696 15.9886 16.696 15.9171C16.696 15.6506 16.5115 15.5506 16.017 15.5506C15.6358 15.5502 15.2571 15.6115 14.8955 15.7321L15.0425 14.8271C15.57 14.6716 15.9185 14.6136 16.31 14.6136C17.22 14.6136 17.702 15.0221 17.701 15.7936C17.7025 16.0011 17.668 16.2556 17.615 16.5916C17.523 17.1741 17.3255 18.4246 17.2985 18.7286ZM13.92 18.7286H12.86L13.4675 14.9241L12.1125 18.7286H11.39L11.301 14.9456L10.663 18.7286H9.67151L10.5 13.7791H12.023L12.115 16.5496L13.045 13.7796H14.7385L13.92 18.7286ZM33.216 16.9351C33.1378 16.9245 33.0589 16.919 32.98 16.9186C32.379 16.9186 32.076 17.1246 32.076 17.5316C32.076 17.7816 32.2235 17.9416 32.4555 17.9416C32.8865 17.9416 33.1985 17.5306 33.216 16.9351ZM33.987 18.7286H33.109L33.129 18.3116C32.8615 18.6411 32.504 18.7981 32.019 18.7981C31.4445 18.7981 31.0515 18.3501 31.0515 17.6986C31.0515 16.7186 31.7365 16.1471 32.9115 16.1471C33.0315 16.1471 33.185 16.1581 33.3425 16.1781C33.3755 16.0451 33.384 15.9886 33.384 15.9171C33.384 15.6506 33.1995 15.5506 32.7045 15.5506C32.3233 15.5504 31.9446 15.6116 31.583 15.7321C31.5945 15.6651 31.731 14.8271 31.731 14.8271C32.258 14.6716 32.6065 14.6136 32.998 14.6136C33.908 14.6136 34.3895 15.0221 34.3885 15.7936C34.3905 16.0011 34.3565 16.2556 34.303 16.5916C34.2115 17.1741 34.013 18.4246 33.987 18.7286ZM22.0065 18.6676C21.7165 18.7586 21.4905 18.7981 21.2455 18.7981C20.704 18.7981 20.4085 18.4871 20.4085 17.9136C20.401 17.7361 20.4865 17.2681 20.5535 16.8411C20.615 16.4651 21.0135 14.0941 21.0135 14.0941H22.066L21.943 14.7036H22.579L22.4355 15.6711H21.7975C21.675 16.4361 21.5005 17.3896 21.4985 17.5161C21.4985 17.7236 21.6095 17.8146 21.8615 17.8146C21.982 17.8146 22.0755 17.8021 22.147 17.7766L22.0065 18.6676ZM25.235 18.6346C24.873 18.7456 24.525 18.7996 24.155 18.7981C22.976 18.7966 22.3615 18.1811 22.3615 17.0026C22.3615 15.6266 23.143 14.6136 24.2045 14.6136C25.0725 14.6136 25.627 15.1806 25.627 16.0701C25.627 16.3651 25.589 16.6536 25.497 17.0601H23.4C23.3295 17.6441 23.703 17.8871 24.316 17.8871C24.692 17.8871 25.0325 17.8096 25.4105 17.6341L25.235 18.6346ZM24.643 16.2486C24.649 16.1646 24.7545 15.5301 24.153 15.5301C23.818 15.5301 23.578 15.7856 23.4805 16.2486H24.643ZM17.934 15.9761C17.934 16.4846 18.181 16.8361 18.7405 17.0996C19.1695 17.3016 19.2365 17.3611 19.2365 17.5441C19.2365 17.7946 19.0465 17.9086 18.628 17.9086C18.3115 17.9086 18.018 17.8586 17.6785 17.7491L17.5335 18.6791C17.7735 18.7311 17.9885 18.7796 18.6355 18.7981C19.753 18.7981 20.2695 18.3726 20.2695 17.4531C20.2695 16.8996 20.0535 16.5751 19.523 16.3311C19.079 16.1271 19.0275 16.0816 19.0275 15.8936C19.0275 15.6761 19.204 15.5651 19.546 15.5651C19.754 15.5651 20.038 15.5871 20.307 15.6251L20.458 14.6916C20.1492 14.6453 19.8377 14.6193 19.5255 14.6136C18.3405 14.6136 17.9305 15.2326 17.934 15.9761ZM30.387 14.7201C30.681 14.7201 30.956 14.7961 31.3335 14.9871L31.507 13.9131C31.3515 13.8521 30.8055 13.4941 30.3425 13.4941C29.634 13.4941 29.034 13.8461 28.613 14.4261C27.998 14.2226 27.745 14.6341 27.4355 15.0441L27.1605 15.1081C27.1849 14.9746 27.1961 14.8389 27.194 14.7031H26.22C26.0875 15.9496 25.852 17.2111 25.668 18.4581L25.6195 18.7286H26.6795C26.856 17.5791 26.953 16.8436 27.012 16.3451L27.411 16.1241C27.471 15.9016 27.657 15.8271 28.031 15.8361C27.9807 16.1083 27.9556 16.3844 27.956 16.6611C27.956 17.9781 28.6675 18.7981 29.8075 18.7981C30.101 18.7981 30.3535 18.7596 30.744 18.6531L30.9295 17.5256C30.5785 17.6981 30.2905 17.7791 30.0295 17.7791C29.4145 17.7791 29.0415 17.3241 29.0415 16.5731C29.0415 15.4831 29.596 14.7201 30.387 14.7201ZM39.3555 13.7791L39.1205 15.2091C38.8305 14.8281 38.52 14.5521 38.109 14.5521C37.5745 14.5521 37.088 14.9571 36.769 15.5541C36.4643 15.4875 36.1634 15.4045 35.8675 15.3056V15.3096C35.9025 14.9756 35.9175 14.7731 35.914 14.7036H34.94C34.808 15.9496 34.572 17.2111 34.388 18.4576L34.3395 18.7286H35.3995C35.5425 17.7996 35.652 17.0276 35.7325 16.4161C36.095 16.0886 36.2765 15.8036 36.6415 15.8221C36.472 16.2367 36.3849 16.6803 36.385 17.1281C36.385 18.1341 36.8935 18.7981 37.664 18.7981C38.052 18.7981 38.35 18.6641 38.6405 18.3541L38.5905 18.7281H39.593L40.4 13.7791H39.3555ZM38.0305 17.7991C37.6705 17.7991 37.4875 17.5316 37.4875 17.0051C37.4875 16.2141 37.829 15.6531 38.3095 15.6531C38.6735 15.6531 38.8705 15.9301 38.8705 16.4416C38.8705 17.2396 38.524 17.7991 38.0305 17.7991Z" fill="#000066"/>
<path id="Vector_5" fill-rule="evenodd" clip-rule="evenodd" d="M14.2251 18.4358H13.1651L13.7726 14.6318L12.4176 18.4358H11.6956L11.6066 14.6538L10.9686 18.4358H9.97705L10.8051 13.4873H12.3286L12.3711 16.5508L13.3991 13.4873H15.0441L14.2251 18.4358ZM16.8336 16.6433C16.7552 16.6325 16.6762 16.627 16.5971 16.6268C15.9966 16.6268 15.6926 16.8323 15.6926 17.2388C15.6926 17.4888 15.8411 17.6493 16.0726 17.6493C16.5041 17.6493 16.8151 17.2388 16.8336 16.6433ZM17.6036 18.4358H16.7261L16.7461 18.0193C16.4786 18.3483 16.1211 18.5058 15.6361 18.5058C15.0621 18.5058 14.6686 18.0573 14.6686 17.4058C14.6686 16.4258 15.3531 15.8548 16.5286 15.8548C16.6486 15.8548 16.802 15.8658 16.96 15.8863C16.9925 15.7528 17.001 15.6963 17.001 15.6243C17.001 15.3583 16.817 15.2593 16.3221 15.2593C15.9409 15.2582 15.5622 15.3189 15.2006 15.4393L15.3476 14.5343C15.8751 14.3793 16.2236 14.3213 16.6151 14.3213C17.5251 14.3213 18.0066 14.7298 18.0061 15.5013C18.0076 15.7083 17.9736 15.9643 17.9201 16.2988C17.8281 16.8813 17.6306 18.1323 17.6036 18.4358ZM31.812 13.6203L31.6385 14.6943C31.26 14.5043 30.9861 14.4273 30.6921 14.4273C29.9011 14.4273 29.3465 15.1918 29.3465 16.2823C29.3465 17.0328 29.7195 17.4868 30.335 17.4868C30.596 17.4868 30.8841 17.4063 31.2351 17.2328L31.0485 18.3608C30.6586 18.4668 30.406 18.5058 30.1125 18.5058C28.972 18.5058 28.2616 17.6858 28.2616 16.3693C28.2616 14.5998 29.2435 13.3633 30.6475 13.3633C31.11 13.3633 31.6565 13.5593 31.812 13.6203ZM33.5205 16.6433C33.4425 16.6325 33.3638 16.627 33.285 16.6268C32.685 16.6268 32.3811 16.8323 32.3811 17.2388C32.3811 17.4888 32.529 17.6493 32.76 17.6493C33.1915 17.6493 33.503 17.2388 33.5205 16.6433ZM34.2915 18.4358H33.4141L33.434 18.0193C33.166 18.3483 32.8091 18.5058 32.3241 18.5058C31.7491 18.5058 31.3566 18.0573 31.3566 17.4058C31.3566 16.4258 32.0405 15.8548 33.216 15.8548C33.3361 15.8548 33.4895 15.8658 33.647 15.8863C33.68 15.7528 33.6885 15.6963 33.6885 15.6243C33.6885 15.3583 33.5045 15.2593 33.0095 15.2593C32.6286 15.2582 32.25 15.319 31.8885 15.4393L32.0355 14.5343C32.563 14.3793 32.9111 14.3213 33.3031 14.3213C34.2126 14.3213 34.6945 14.7298 34.6931 15.5013C34.6956 15.7083 34.6611 15.9643 34.6081 16.2988C34.5161 16.8813 34.3186 18.1323 34.2915 18.4358ZM22.3116 18.3753C22.0216 18.4663 21.7956 18.5058 21.5506 18.5058C21.0091 18.5058 20.713 18.1948 20.713 17.6218C20.706 17.4433 20.7915 16.9763 20.859 16.5488C20.9195 16.1723 21.3181 13.8023 21.3181 13.8023H22.3711L22.248 14.4113H22.7881L22.6446 15.3783H22.102C21.9801 16.1443 21.8055 17.0973 21.8035 17.2238C21.8035 17.4318 21.9146 17.5223 22.1666 17.5223C22.2871 17.5223 22.3806 17.5103 22.4521 17.4838L22.3116 18.3753ZM25.5401 18.3433C25.1902 18.452 24.8259 18.5068 24.4595 18.5058C23.2806 18.5053 22.6666 17.8893 22.6666 16.7108C22.6666 15.3343 23.448 14.3208 24.5085 14.3208C25.3776 14.3208 25.932 14.8883 25.932 15.7783C25.932 16.0733 25.8936 16.3613 25.8021 16.7683H23.7051C23.6341 17.3518 24.0081 17.5953 24.6201 17.5953C24.9971 17.5953 25.3371 17.5173 25.7151 17.3418L25.5401 18.3433ZM24.9486 15.9563C24.9541 15.8718 25.0601 15.2378 24.4586 15.2378C24.1236 15.2378 23.883 15.4938 23.7856 15.9563H24.9486ZM18.2391 15.6838C18.2391 16.1933 18.486 16.5438 19.0461 16.8078C19.4746 17.0093 19.5411 17.0693 19.5411 17.2518C19.5411 17.5028 19.3521 17.6158 18.9326 17.6158C18.6098 17.6148 18.2893 17.5614 17.9836 17.4578L17.8385 18.3863C18.0785 18.4393 18.2936 18.4873 18.9401 18.5063C20.0581 18.5063 20.5745 18.0803 20.5745 17.1608C20.5745 16.6073 20.3586 16.2828 19.8275 16.0393C19.3835 15.8348 19.3326 15.7898 19.3326 15.6018C19.3326 15.3843 19.5086 15.2718 19.8511 15.2718C20.0586 15.2718 20.3431 15.2953 20.6121 15.3333L20.7631 14.3998C20.4542 14.3535 20.1428 14.3272 19.8306 14.3213C18.6455 14.3213 18.2356 14.9398 18.2391 15.6838ZM39.8985 18.4358H38.8965L38.946 18.0613C38.6555 18.3718 38.3576 18.5063 37.9696 18.5063C37.1996 18.5063 36.69 17.8423 36.69 16.8358C36.69 15.4968 37.4801 14.3683 38.4141 14.3683C38.8246 14.3683 39.1355 14.5363 39.4255 14.9173L39.6605 13.4873H40.7056L39.8985 18.4358ZM38.3355 17.5058C38.829 17.5058 39.1755 16.9473 39.1755 16.1498C39.1755 15.6383 38.978 15.3603 38.614 15.3603C38.134 15.3603 37.7925 15.9213 37.7925 16.7128C37.7925 17.2398 37.9755 17.5058 38.3355 17.5058ZM35.246 14.4113C35.1135 15.6573 34.8776 16.9188 34.6936 18.1653L34.6451 18.4358H35.7051C36.0836 15.9748 36.1751 15.4943 36.7696 15.5543C36.864 15.0508 37.0401 14.6093 37.1716 14.3873C36.7281 14.2943 36.48 14.5453 36.1555 15.0218C36.181 14.8158 36.2281 14.6158 36.2191 14.4113H35.246ZM26.5261 14.4113C26.3931 15.6573 26.157 16.9188 25.9731 18.1653L25.925 18.4358H26.9851C27.364 15.9748 27.455 15.4943 28.0485 15.5543C28.1435 15.0508 28.32 14.6093 28.451 14.3873C28.008 14.2943 27.7596 14.5453 27.4356 15.0218C27.4611 14.8158 27.5081 14.6158 27.4991 14.4113H26.5261Z" fill="white"/>
</g>
</g>
<defs>
<clipPath id="clip0_128_4514">
<rect width="50" height="30" fill="white" transform="translate(0.5 0.625)"/>
</clipPath>
</defs>
</svg>
