<svg width="12" height="11" viewBox="0 0 12 11" fill="none" xmlns="http://www.w3.org/2000/svg">
<path id="Star 2" d="M5.5919 0.576492C5.79116 0.295012 6.20884 0.295012 6.4081 0.576492L8.05348 2.90082C8.11692 2.99044 8.2081 3.05668 8.31293 3.08933L11.032 3.93592C11.3612 4.03844 11.4903 4.43568 11.2842 4.71217L9.58206 6.99528C9.51643 7.08331 9.4816 7.19049 9.48295 7.30028L9.51801 10.1478C9.52226 10.4927 9.18435 10.7382 8.8577 10.6276L6.16035 9.71429C6.05635 9.67908 5.94365 9.67908 5.83965 9.71429L3.1423 10.6276C2.81565 10.7382 2.47774 10.4927 2.48199 10.1478L2.51705 7.30028C2.5184 7.19049 2.48357 7.08331 2.41795 6.99528L0.715829 4.71217C0.5097 4.43568 0.638768 4.03844 0.968046 3.93592L3.68707 3.08933C3.7919 3.05668 3.88308 2.99044 3.94652 2.90082L5.5919 0.576492Z" fill="#00CCF8"/>
</svg>
