<svg width="51" height="31" viewBox="0 0 51 31" fill="none" xmlns="http://www.w3.org/2000/svg">
<g id="visa-dark logo" clip-path="url(#clip0_128_4509)">
<g id="Group">
<path id="Vector" d="M48.5 0.625H2.5C1.39543 0.625 0.5 1.52043 0.5 2.625V28.625C0.5 29.7296 1.39543 30.625 2.5 30.625H48.5C49.6046 30.625 50.5 29.7296 50.5 28.625V2.625C50.5 1.52043 49.6046 0.625 48.5 0.625Z" fill="#26337A"/>
<path id="Vector_2" fill-rule="evenodd" clip-rule="evenodd" d="M21.245 20.3988L22.7825 10.8618H25.24L23.7025 20.3988H21.245ZM32.6165 11.0953C32.1305 10.9043 31.3665 10.6953 30.4145 10.6953C27.9845 10.6953 26.2745 11.9898 26.2605 13.8428C26.245 15.2138 27.4805 15.9783 28.4125 16.4338C29.37 16.9013 29.692 17.1998 29.688 17.6178C29.6815 18.2563 28.9235 18.5488 28.217 18.5488C27.2335 18.5488 26.7105 18.4048 25.902 18.0488L25.5865 17.8968L25.2425 20.0318C25.8155 20.2973 26.8775 20.5278 27.9805 20.5403C30.5625 20.5403 32.2405 19.2613 32.26 17.2823C32.269 16.1953 31.614 15.3713 30.196 14.6913C29.337 14.2488 28.81 13.9563 28.816 13.5083C28.8165 13.1123 29.261 12.6878 30.224 12.6878C30.8564 12.6735 31.4843 12.7987 32.063 13.0543L32.2835 13.1633L32.6165 11.0953ZM35.8885 17.0173C36.0925 16.4693 36.8675 14.3518 36.8675 14.3518C36.8535 14.3768 37.07 13.7993 37.194 13.4418L37.36 14.2643C37.36 14.2643 37.8315 16.5408 37.929 17.0173H35.8885ZM38.9205 10.8713H37.021C36.432 10.8713 35.991 11.0403 35.733 11.6618L32.0835 20.4018H34.665C34.665 20.4018 35.086 19.2263 35.1815 18.9683C35.463 18.9683 37.9715 18.9733 38.329 18.9733C38.4025 19.3058 38.6285 20.4023 38.6285 20.4023H40.909L38.9205 10.8713ZM19.1835 10.8698L16.7785 17.3718L16.5205 16.0498C16.072 14.5273 14.677 12.8768 13.1165 12.0498L15.3165 20.3903L17.9175 20.3888L21.7875 10.8698H19.1835Z" fill="white"/>
<path id="Vector_3" fill-rule="evenodd" clip-rule="evenodd" d="M14.545 10.8638H10.5825L10.55 11.0613C13.6335 11.8513 15.6735 13.7583 16.52 16.0503L15.6595 11.6683C15.5105 11.0638 15.079 10.8848 14.5455 10.8633" fill="#EC982D"/>
</g>
</g>
<defs>
<clipPath id="clip0_128_4509">
<rect width="50" height="30" fill="white" transform="translate(0.5 0.625)"/>
</clipPath>
</defs>
</svg>
